<svg width="1149" height="1739" viewBox="0 0 1149 1739" fill="none" xmlns="http://www.w3.org/2000/svg">
<path d="M314.99 963.271C439.977 963.271 541.699 1064.99 541.699 1190C541.699 1315.04 439.977 1416.75 314.99 1416.75C189.974 1416.75 88.2656 1315.04 88.2656 1190C88.2656 1064.99 189.974 963.271 314.99 963.271ZM1027.42 1035.86V739.817H627.486V588.563H62.5152L614.611 36.4304L807.437 229.317L825.643 211.109L614.611 0L0.380859 614.315H601.736V739.817H201.197V964.665C118.988 1006.31 62.5152 1091.7 62.5152 1190C62.5152 1329.21 175.777 1442.5 314.99 1442.5C454.174 1442.5 567.45 1329.21 567.45 1190C567.45 1050.79 454.174 937.518 314.99 937.518C284.038 937.518 254.35 943.109 226.947 953.37V765.57H1001.67V1345.88H1027.42V1061.61H1148.49V1035.86" fill="white"/>
<path d="M763.15 1738.15C760.98 1737.31 758.724 1736.49 756.31 1735.62C756.641 1735.7 759.356 1736.41 763.15 1738.15Z" fill="white"/>
<path d="M763.15 1738.15C760.98 1737.31 758.724 1736.49 756.31 1735.62C756.641 1735.7 759.356 1736.41 763.15 1738.15Z" fill="white"/>
</svg>
