<svg width="1344" height="207" viewBox="0 0 1344 207" fill="none" xmlns="http://www.w3.org/2000/svg">
<path d="M149.214 204.025H132.014L54.8489 97.8088L28.0208 121.478V204.025H0V2.88867H28.0208V107.437L50.3081 85.148L129.126 2.88867H147.001L64.6059 87.9072" fill="white"/>
<path d="M438.26 2.88867V133.032C438.26 156.141 431.564 174.219 418.171 187.239C404.779 200.259 386.127 206.769 362.187 206.769C338.894 206.769 320.716 200.245 307.64 187.167C294.578 174.104 288.04 155.867 288.04 132.486V2.88867H315.284L316.046 133.032C316.046 152.39 314.825 168.212 325.559 178.99C336.278 189.769 344.21 194.396 363.839 194.396C383.008 194.396 397.867 189.093 408.414 178.502C418.947 167.91 424.235 153.209 424.235 134.412V2.88867" fill="white"/>
<path d="M605.709 204.025H633.744V2.88867H605.709V204.025Z" fill="white"/>
<path d="M1122.15 204.025H1093.83V16.0956H1028.49V2.88867H1173.35V16.0956H1122.15" fill="white"/>
<path d="M1315.89 204.025H1343.93V2.88867H1315.89V204.025Z" fill="white"/>
<path d="M900.387 152.16C900.387 168.945 894.223 182.224 881.894 192.054C869.55 201.869 853.169 206.769 832.706 206.769C808.134 206.769 789.281 204.053 776.176 198.65V184.624C790.646 190.775 809.14 193.85 831.614 193.85C831.614 193.85 872.381 189.151 872.381 153.036C872.381 127.384 855.18 115.744 845.222 111.159C845.194 111.145 845.165 111.145 845.15 111.145C841.357 109.406 838.641 108.688 838.296 108.616C838.282 108.587 838.282 108.616 838.282 108.616C836.586 107.998 834.833 107.365 832.994 106.762C812.431 99.6914 798.248 92.046 790.402 83.8546C782.571 75.6488 778.662 64.7124 778.662 51.0457C778.662 35.9849 784.525 23.7265 796.322 14.2273C808.12 4.74242 823.251 0 841.788 0C860.67 0 878.431 3.564 895.042 10.7351L889.926 22.8498C889.926 22.8498 889.84 22.7924 889.682 22.7205C889.524 22.663 889.294 22.548 888.978 22.4331C886.607 21.4127 879.968 18.7254 871.404 16.4404C869.507 15.923 867.51 15.4488 865.455 15.0033C864.463 14.7733 863.472 14.5722 862.48 14.3853C861.072 14.1123 859.635 13.868 858.169 13.6524C834.718 10.2034 806.812 14.6584 806.812 55.4001C806.812 55.4001 806.985 79.8451 842.348 95.6244C858.026 101.028 869.809 106.259 877.683 111.375C885.572 116.448 891.334 122.239 894.97 128.706C898.577 135.159 900.387 142.977 900.387 152.16Z" fill="white"/>
</svg>
